<svg width="33" height="37" viewBox="0 0 33 37" fill="none" xmlns="http://www.w3.org/2000/svg">
    <path fill-rule="evenodd" clip-rule="evenodd"
        d="M5.74433 0H20.4966L32.9997 10.928V32.1832C32.9997 34.8458 30.4307 37 27.2663 37H5.74433C2.56896 37 9.07413e-10 34.8458 9.07413e-10 32.1832V4.81682C-5.57504e-05 2.15417 2.56891 0 5.74433 0Z"
        fill="#0263D1" />
    <path fill-rule="evenodd" clip-rule="evenodd" d="M20.4863 0V10.8448H33.0004L20.4863 0Z"
        fill="#2A8BF9" />
    <path
        d="M7.90163 29.3605H5.32351V22.0877H7.92294C8.65447 22.0877 9.28421 22.2333 9.81214 22.5245C10.3401 22.8134 10.7461 23.2288 11.0302 23.771C11.3166 24.3131 11.4599 24.9618 11.4599 25.717C11.4599 26.4746 11.3166 27.1256 11.0302 27.6701C10.7461 28.2146 10.3377 28.6325 9.80504 28.9237C9.27474 29.2149 8.64027 29.3605 7.90163 29.3605ZM6.86115 28.043H7.83771C8.29226 28.043 8.6746 27.9625 8.98473 27.8015C9.29723 27.6382 9.53161 27.386 9.68786 27.0451C9.84647 26.7019 9.92578 26.2591 9.92578 25.717C9.92578 25.1796 9.84647 24.7404 9.68786 24.3995C9.53161 24.0586 9.29841 23.8077 8.98828 23.6467C8.67815 23.4857 8.29581 23.4052 7.84126 23.4052H6.86115V28.043ZM19.2821 25.7241C19.2821 26.5172 19.1318 27.1919 18.8311 27.7483C18.5328 28.3046 18.1257 28.7296 17.6096 29.0231C17.0958 29.3143 16.5182 29.4599 15.8766 29.4599C15.2303 29.4599 14.6503 29.3131 14.1365 29.0196C13.6228 28.726 13.2168 28.3011 12.9185 27.7447C12.6202 27.1884 12.4711 26.5148 12.4711 25.7241C12.4711 24.931 12.6202 24.2563 12.9185 23.7C13.2168 23.1436 13.6228 22.7198 14.1365 22.4287C14.6503 22.1351 15.2303 21.9883 15.8766 21.9883C16.5182 21.9883 17.0958 22.1351 17.6096 22.4287C18.1257 22.7198 18.5328 23.1436 18.8311 23.7C19.1318 24.2563 19.2821 24.931 19.2821 25.7241ZM17.7232 25.7241C17.7232 25.2104 17.6462 24.7771 17.4924 24.4244C17.3408 24.0716 17.1266 23.8041 16.8496 23.6218C16.5726 23.4395 16.2483 23.3484 15.8766 23.3484C15.5049 23.3484 15.1806 23.4395 14.9036 23.6218C14.6266 23.8041 14.4112 24.0716 14.2573 24.4244C14.1058 24.7771 14.03 25.2104 14.03 25.7241C14.03 26.2378 14.1058 26.6711 14.2573 27.0238C14.4112 27.3766 14.6266 27.6441 14.9036 27.8264C15.1806 28.0087 15.5049 28.0998 15.8766 28.0998C16.2483 28.0998 16.5726 28.0087 16.8496 27.8264C17.1266 27.6441 17.3408 27.3766 17.4924 27.0238C17.6462 26.6711 17.7232 26.2378 17.7232 25.7241ZM26.8381 24.6339H25.2827C25.2543 24.4327 25.1963 24.2539 25.1087 24.0977C25.0211 23.9391 24.9086 23.8041 24.7713 23.6929C24.634 23.5816 24.4754 23.4964 24.2955 23.4372C24.1179 23.378 23.925 23.3484 23.7166 23.3484C23.3402 23.3484 23.0123 23.4419 22.733 23.6289C22.4536 23.8136 22.237 24.0835 22.0831 24.4386C21.9292 24.7913 21.8523 25.2198 21.8523 25.7241C21.8523 26.2426 21.9292 26.6782 22.0831 27.0309C22.2393 27.3837 22.4571 27.65 22.7365 27.8299C23.0159 28.0099 23.339 28.0998 23.706 28.0998C23.9119 28.0998 24.1025 28.0726 24.2777 28.0181C24.4553 27.9637 24.6127 27.8844 24.75 27.7802C24.8873 27.6737 25.0009 27.5447 25.0909 27.3931C25.1832 27.2416 25.2472 27.0688 25.2827 26.8747L26.8381 26.8818C26.7978 27.2156 26.6972 27.5376 26.5362 27.8477C26.3776 28.1555 26.1634 28.4313 25.8935 28.6751C25.6259 28.9166 25.3063 29.1083 24.9347 29.2504C24.5653 29.3901 24.1475 29.4599 23.6811 29.4599C23.0324 29.4599 22.4524 29.3131 21.9411 29.0196C21.4321 28.726 21.0296 28.3011 20.7337 27.7447C20.4401 27.1884 20.2933 26.5148 20.2933 25.7241C20.2933 24.931 20.4425 24.2563 20.7408 23.7C21.0391 23.1436 21.4439 22.7198 21.9553 22.4287C22.4666 22.1351 23.0419 21.9883 23.6811 21.9883C24.1025 21.9883 24.4931 22.0475 24.853 22.1659C25.2152 22.2842 25.536 22.4571 25.8153 22.6843C26.0947 22.9092 26.322 23.185 26.4972 23.5118C26.6747 23.8385 26.7884 24.2125 26.8381 24.6339Z"
        fill="white" />
</svg>
    