<svg width="32" height="35" viewBox="0 0 32 35" fill="none" xmlns="http://www.w3.org/2000/svg">
    <path fill-rule="evenodd" clip-rule="evenodd"
        d="M5.57026 0H19.8755L31.9997 10.3373V30.4435C31.9997 32.9623 29.5086 35 26.4401 35H5.57026C2.49112 35 8.79915e-10 32.9623 8.79915e-10 30.4435V4.55646C-5.4061e-05 2.03772 2.49106 0 5.57026 0Z"
        fill="#E5252A" />
    <path fill-rule="evenodd" clip-rule="evenodd" d="M19.8652 0V10.2586H32.0001L19.8652 0Z"
        fill="#DF676A" />
    <path
        d="M8.5 26.5355V19.3955H11.0251C11.6503 19.3955 12.1456 19.6006 12.5191 20.0206C12.8926 20.4309 13.0793 20.9876 13.0793 21.6811C13.0793 22.3746 12.8926 22.9313 12.5191 23.3416C12.1456 23.7616 11.6503 23.9667 11.0251 23.9667H10.0183V26.5355H8.5ZM10.0183 22.4137H10.8546C11.0819 22.4137 11.2606 22.3551 11.3824 22.2183C11.5042 22.0914 11.5691 21.9155 11.5691 21.6811C11.5691 21.4467 11.5042 21.2709 11.3824 21.1439C11.2606 21.0072 11.082 20.9486 10.8546 20.9486H10.0183V22.4137ZM13.7045 26.5355V19.3955H15.8074C16.2215 19.3955 16.6112 19.4639 16.9766 19.6104C17.3419 19.7569 17.6748 19.9621 17.9671 20.2453C18.2594 20.5188 18.4949 20.8899 18.6654 21.3588C18.8278 21.8276 18.9171 22.3648 18.9171 22.9704C18.9171 23.5662 18.8278 24.1034 18.6654 24.5722C18.4949 25.0411 18.2594 25.4122 17.9671 25.6857C17.6748 25.969 17.3419 26.1741 16.9766 26.3206C16.6112 26.4671 16.2215 26.5355 15.8074 26.5355H13.7045ZM15.1903 24.9825H15.6288C15.8642 24.9825 16.0834 24.9532 16.2864 24.8848C16.4813 24.8165 16.668 24.709 16.8467 24.5625C17.0172 24.416 17.1552 24.2109 17.2526 23.9374C17.35 23.6639 17.3988 23.3416 17.3988 22.9704C17.3988 22.5895 17.35 22.2671 17.2526 21.9937C17.1552 21.7202 17.0172 21.5151 16.8467 21.3686C16.668 21.2221 16.4813 21.1146 16.2864 21.0462C16.0834 20.9779 15.8642 20.9486 15.6288 20.9486H15.1903V24.9825ZM19.6803 26.5355V19.3955H23.9024V20.9486H21.1986V22.0913H23.3584V23.6346H21.1986V26.5355H19.6803Z"
        fill="white" />
</svg>
    