<svg width="1em" height="1em" viewBox="0 0 22 22" fill="none" xmlns="http://www.w3.org/2000/svg">
    <path
        d="M5.45001 17.5H2.90002C1.06002 17.5 0 16.44 0 14.6V2.90002C0 1.06002 1.06002 0 2.90002 0H7.20001C9.04001 0 10.1 1.06002 10.1 2.90002V4.75C10.1 5.16 9.75998 5.5 9.34998 5.5C8.93998 5.5 8.59998 5.16 8.59998 4.75V2.90002C8.59998 1.88002 8.22001 1.5 7.20001 1.5H2.90002C1.88002 1.5 1.5 1.88002 1.5 2.90002V14.6C1.5 15.62 1.88002 16 2.90002 16H5.45001C5.86001 16 6.20001 16.34 6.20001 16.75C6.20001 17.16 5.86001 17.5 5.45001 17.5Z"
        fill="currentColor" />
    <path
        d="M13.7102 21.5H7.87018C5.86018 21.5 4.7002 20.34 4.7002 18.33V7.16998C4.7002 5.15998 5.86018 4 7.87018 4H13.7102C15.7202 4 16.8702 5.15998 16.8702 7.16998V18.33C16.8702 20.34 15.7202 21.5 13.7102 21.5ZM7.87018 5.5C6.67018 5.5 6.2002 5.96998 6.2002 7.16998V18.33C6.2002 19.53 6.67018 20 7.87018 20H13.7102C14.9002 20 15.3702 19.53 15.3702 18.33V7.16998C15.3702 5.96998 14.9002 5.5 13.7102 5.5H7.87018Z"
        fill="currentColor" />
    <path
        d="M18.5999 17.5H16.1199C15.7099 17.5 15.3699 17.16 15.3699 16.75C15.3699 16.34 15.7099 16 16.1199 16H18.5999C19.6199 16 19.9999 15.62 19.9999 14.6V2.90002C19.9999 1.88002 19.6199 1.5 18.5999 1.5H14.2999C13.2799 1.5 12.8999 1.88002 12.8999 2.90002V4.75C12.8999 5.16 12.5599 5.5 12.1499 5.5C11.7399 5.5 11.3999 5.16 11.3999 4.75V2.90002C11.3999 1.06002 12.4599 0 14.2999 0H18.5999C20.4399 0 21.4999 1.06002 21.4999 2.90002V14.6C21.4999 16.44 20.4399 17.5 18.5999 17.5Z"
        fill="currentColor" />
    <path
        d="M12.75 10.5H8.75C8.34 10.5 8 10.16 8 9.75C8 9.34 8.34 9 8.75 9H12.75C13.16 9 13.5 9.34 13.5 9.75C13.5 10.16 13.16 10.5 12.75 10.5Z"
        fill="currentColor" />
    <path
        d="M12.75 13.5H8.75C8.34 13.5 8 13.16 8 12.75C8 12.34 8.34 12 8.75 12H12.75C13.16 12 13.5 12.34 13.5 12.75C13.5 13.16 13.16 13.5 12.75 13.5Z"
        fill="white" />
    <path
        d="M10.75 21.5C10.34 21.5 10 21.16 10 20.75V17.75C10 17.34 10.34 17 10.75 17C11.16 17 11.5 17.34 11.5 17.75V20.75C11.5 21.16 11.16 21.5 10.75 21.5Z"
        fill="white" />
</svg>