<svg width="1em" height="1em" viewBox="0 0 22 21" fill="none" xmlns="http://www.w3.org/2000/svg">
    <path
        d="M18.7516 9.67H2.75157C2.52157 9.67 2.31157 9.57 2.17157 9.39C2.03157 9.22 1.97157 8.98 2.02157 8.76L3.15157 3.36C3.52157 1.61 4.27157 0 7.24157 0H14.2716C17.2416 0 17.9916 1.62 18.3616 3.36L19.4916 8.77C19.5416 8.99 19.4816 9.22 19.3416 9.4C19.1916 9.57 18.9816 9.67 18.7516 9.67ZM3.67157 8.17H17.8216L16.8816 3.67C16.6016 2.36 16.2716 1.5 14.2616 1.5H7.24157C5.23157 1.5 4.90157 2.36 4.62157 3.67L3.67157 8.17Z"
        fill="currentColor" />
    <path
        d="M18.7115 20.6699H16.8316C15.2116 20.6699 14.9016 19.7399 14.7016 19.1299L14.5016 18.5299C14.2416 17.7699 14.2116 17.6699 13.3116 17.6699H8.19155C7.29155 17.6699 7.23155 17.8399 7.00155 18.5299L6.80155 19.1299C6.59155 19.7499 6.29155 20.6699 4.67155 20.6699H2.79155C2.00155 20.6699 1.24155 20.3399 0.711551 19.7599C0.191551 19.1899 -0.0584494 18.4299 0.0115506 17.6699L0.571551 11.5799C0.721551 9.92992 1.16155 8.16992 4.37155 8.16992H17.1315C20.3415 8.16992 20.7716 9.92992 20.9316 11.5799L21.4916 17.6699C21.5616 18.4299 21.3116 19.1899 20.7916 19.7599C20.2616 20.3399 19.5016 20.6699 18.7115 20.6699ZM8.19155 16.1699H13.3116C15.1316 16.1699 15.5616 16.9799 15.9216 18.0399L16.1315 18.6599C16.3015 19.1699 16.3015 19.1799 16.8416 19.1799H18.7215C19.0916 19.1799 19.4416 19.0299 19.6916 18.7599C19.9316 18.4999 20.0416 18.1699 20.0116 17.8199L19.4516 11.7299C19.3216 10.3799 19.1616 9.67992 17.1516 9.67992H4.37155C2.35155 9.67992 2.19155 10.3799 2.07155 11.7299L1.51155 17.8199C1.48155 18.1699 1.59155 18.4999 1.83155 18.7599C2.07155 19.0299 2.43155 19.1799 2.80155 19.1799H4.68155C5.22155 19.1799 5.22155 19.1699 5.39155 18.6699L5.59155 18.0599C5.84155 17.2599 6.21155 16.1699 8.19155 16.1699Z"
        fill="currentColor" />
    <path
        d="M2.75146 6.66992H1.75146C1.34146 6.66992 1.00146 6.32992 1.00146 5.91992C1.00146 5.50992 1.34146 5.16992 1.75146 5.16992H2.75146C3.16146 5.16992 3.50146 5.50992 3.50146 5.91992C3.50146 6.32992 3.16146 6.66992 2.75146 6.66992Z"
        fill="currentColor" />
    <path
        d="M19.7515 6.66992H18.7515C18.3415 6.66992 18.0015 6.32992 18.0015 5.91992C18.0015 5.50992 18.3415 5.16992 18.7515 5.16992H19.7515C20.1615 5.16992 20.5015 5.50992 20.5015 5.91992C20.5015 6.32992 20.1615 6.66992 19.7515 6.66992Z"
        fill="currentColor" />
    <path
        d="M10.7515 3.66992C10.3415 3.66992 10.0015 3.32992 10.0015 2.91992V0.919922C10.0015 0.509922 10.3415 0.169922 10.7515 0.169922C11.1615 0.169922 11.5015 0.509922 11.5015 0.919922V2.91992C11.5015 3.32992 11.1615 3.66992 10.7515 3.66992Z"
        fill="currentColor" />
    <path
        d="M12.2515 3.66992H9.25146C8.84146 3.66992 8.50146 3.32992 8.50146 2.91992C8.50146 2.50992 8.84146 2.16992 9.25146 2.16992H12.2515C12.6615 2.16992 13.0015 2.50992 13.0015 2.91992C13.0015 3.32992 12.6615 3.66992 12.2515 3.66992Z"
        fill="currentColor" />
    <path
        d="M7.75146 13.6699H4.75146C4.34146 13.6699 4.00146 13.3299 4.00146 12.9199C4.00146 12.5099 4.34146 12.1699 4.75146 12.1699H7.75146C8.16146 12.1699 8.50146 12.5099 8.50146 12.9199C8.50146 13.3299 8.16146 13.6699 7.75146 13.6699Z"
        fill="currentColor" />
    <path
        d="M16.7515 13.6699H13.7515C13.3415 13.6699 13.0015 13.3299 13.0015 12.9199C13.0015 12.5099 13.3415 12.1699 13.7515 12.1699H16.7515C17.1615 12.1699 17.5015 12.5099 17.5015 12.9199C17.5015 13.3299 17.1615 13.6699 16.7515 13.6699Z"
        fill="currentColor" />
</svg>
    