<svg width="1em" height="1em" viewBox="0 0 21 22" fill="none" xmlns="http://www.w3.org/2000/svg">
    <path
        d="M10.3602 12.0501C10.2302 12.0501 10.1002 12.0201 9.98019 11.9501L1.15019 6.8401C0.800192 6.6301 0.670192 6.1701 0.880192 5.8101C1.09019 5.4501 1.55019 5.3301 1.91019 5.5401L10.3602 10.4301L18.7602 5.5701C19.1202 5.3601 19.5802 5.4901 19.7902 5.8401C20.0002 6.2001 19.8702 6.6601 19.5202 6.8701L10.7502 11.9501C10.6202 12.0101 10.4902 12.0501 10.3602 12.0501Z"
        fill="currentColor" />
    <path
        d="M10.3601 21.11C9.95011 21.11 9.61011 20.77 9.61011 20.36V11.29C9.61011 10.88 9.95011 10.54 10.3601 10.54C10.7701 10.54 11.1101 10.88 11.1101 11.29V20.36C11.1101 20.77 10.7701 21.11 10.3601 21.11Z"
        fill="currentColor" />
    <path
        d="M10.36 21.5C9.48 21.5 8.61 21.31 7.92 20.93L2.58 17.96C1.13 17.16 0 15.23 0 13.57V7.92C0 6.26 1.13 4.34 2.58 3.53L7.92 0.57C9.29 -0.19 11.43 -0.19 12.8 0.57L18.14 3.54C19.59 4.34 20.72 6.27 20.72 7.93V13.58C20.72 15.24 19.59 17.16 18.14 17.97L12.8 20.93C12.11 21.31 11.24 21.5 10.36 21.5ZM10.36 1.5C9.73 1.5 9.11 1.63 8.65 1.88L3.31 4.85C2.35 5.38 1.5 6.82 1.5 7.92V13.57C1.5 14.67 2.35 16.11 3.31 16.65L8.65 19.62C9.56 20.13 11.16 20.13 12.07 19.62L17.41 16.65C18.37 16.11 19.22 14.68 19.22 13.57V7.92C19.22 6.82 18.37 5.38 17.41 4.84L12.07 1.87C11.61 1.63 10.99 1.5 10.36 1.5Z"
        fill="currentColor" />
</svg>
    