<svg width="1em" height="1em" viewBox="0 0 20 21" fill="none" xmlns="http://www.w3.org/2000/svg">
    <path
        d="M18.76 17.6423C18.57 17.6423 18.38 17.5723 18.23 17.4223L13.28 12.4723C12.99 12.1823 12.99 11.7023 13.28 11.4123C13.57 11.1223 14.05 11.1223 14.34 11.4123L19.29 16.3623C19.58 16.6523 19.58 17.1323 19.29 17.4223C19.14 17.5723 18.95 17.6423 18.76 17.6423Z"
        fill="currentColor" />
    <path
        d="M8.85995 16.8125C8.12995 16.8125 7.42995 16.5225 6.91995 16.0025L2.67994 11.7625C1.60994 10.6925 1.60994 8.94248 2.67994 7.87248L9.74995 0.8025C10.8199 -0.2675 12.5699 -0.2675 13.6399 0.8025L17.88 5.04249C18.4 5.56249 18.69 6.25249 18.69 6.98249C18.69 7.71249 18.4 8.41249 17.88 8.92249L10.8099 15.9925C10.2899 16.5325 9.59995 16.8125 8.85995 16.8125ZM11.69 1.50248C11.37 1.50248 11.0499 1.62248 10.8099 1.87248L3.73995 8.94248C3.24995 9.43248 3.24995 10.2225 3.73995 10.7125L7.97994 14.9525C8.44994 15.4225 9.26995 15.4225 9.74995 14.9525L16.82 7.88249C17.06 7.64249 17.19 7.33248 17.19 7.00248C17.19 6.67248 17.06 6.35248 16.82 6.12248L12.58 1.88249C12.33 1.62249 12.01 1.50248 11.69 1.50248Z"
        fill="currentColor" />
    <path
        d="M6.75 20.1323H0.75C0.34 20.1323 0 19.7923 0 19.3823C0 18.9723 0.34 18.6323 0.75 18.6323H6.75C7.16 18.6323 7.5 18.9723 7.5 19.3823C7.5 19.7923 7.16 20.1323 6.75 20.1323Z"
        fill="currentColor" />
    <path
        d="M12.38 14.1222C12.19 14.1222 12 14.0522 11.85 13.9022L4.78 6.83219C4.49 6.54219 4.49 6.06219 4.78 5.77219C5.07 5.48219 5.55 5.48219 5.84 5.77219L12.91 12.8422C13.2 13.1322 13.2 13.6122 12.91 13.9022C12.77 14.0522 12.57 14.1222 12.38 14.1222Z"
        fill="currentColor" />
</svg>
    