<svg width="1em" height="1em" viewBox="0 0 22 22" fill="none" xmlns="http://www.w3.org/2000/svg">
    <path
        d="M10.87 12.2805C10.85 12.2805 10.82 12.2805 10.8 12.2805C10.77 12.2805 10.73 12.2805 10.7 12.2805C8.42998 12.2105 6.72998 10.4405 6.72998 8.26047C6.72998 6.04047 8.53998 4.23047 10.76 4.23047C12.98 4.23047 14.79 6.04047 14.79 8.26047C14.78 10.4505 13.07 12.2105 10.9 12.2805C10.88 12.2805 10.88 12.2805 10.87 12.2805ZM10.75 5.72047C9.34998 5.72047 8.21998 6.86047 8.21998 8.25047C8.21998 9.62047 9.28998 10.7305 10.65 10.7805C10.68 10.7705 10.78 10.7705 10.88 10.7805C12.22 10.7105 13.27 9.61047 13.28 8.25047C13.28 6.86047 12.15 5.72047 10.75 5.72047Z"
        fill="currentColor" />
    <path
        d="M10.7498 21.5003C8.05984 21.5003 5.48984 20.5003 3.49984 18.6803C3.31984 18.5203 3.23984 18.2803 3.25984 18.0503C3.38984 16.8603 4.12984 15.7503 5.35984 14.9303C8.33984 12.9503 13.1698 12.9503 16.1398 14.9303C17.3698 15.7603 18.1098 16.8603 18.2398 18.0503C18.2698 18.2903 18.1798 18.5203 17.9998 18.6803C16.0098 20.5003 13.4398 21.5003 10.7498 21.5003ZM4.82984 17.8503C6.48984 19.2403 8.57984 20.0003 10.7498 20.0003C12.9198 20.0003 15.0098 19.2403 16.6698 17.8503C16.4898 17.2403 16.0098 16.6503 15.2998 16.1703C12.8398 14.5303 8.66984 14.5303 6.18984 16.1703C5.47984 16.6503 5.00984 17.2403 4.82984 17.8503Z"
        fill="currentColor" />
    <path
        d="M10.75 21.5C4.82 21.5 0 16.68 0 10.75C0 4.82 4.82 0 10.75 0C16.68 0 21.5 4.82 21.5 10.75C21.5 16.68 16.68 21.5 10.75 21.5ZM10.75 1.5C5.65 1.5 1.5 5.65 1.5 10.75C1.5 15.85 5.65 20 10.75 20C15.85 20 20 15.85 20 10.75C20 5.65 15.85 1.5 10.75 1.5Z"
        fill="currentColor" />
</svg>
    