<svg width="1em" height="1em" viewBox="0 0 19 22" fill="none" xmlns="http://www.w3.org/2000/svg">
    <path
        d="M9.37635 12.9204C7.24635 12.9204 5.50635 11.1904 5.50635 9.05043C5.50635 6.91043 7.24635 5.19043 9.37635 5.19043C11.5063 5.19043 13.2463 6.92043 13.2463 9.06043C13.2463 11.2004 11.5063 12.9204 9.37635 12.9204ZM9.37635 6.69043C8.07635 6.69043 7.00635 7.75043 7.00635 9.06043C7.00635 10.3704 8.06635 11.4304 9.37635 11.4304C10.6863 11.4304 11.7463 10.3704 11.7463 9.06043C11.7463 7.75043 10.6763 6.69043 9.37635 6.69043Z"
        fill="currentColor" />
    <path
        d="M9.37664 21.51C7.89664 21.51 6.40664 20.95 5.24664 19.84C2.29664 17 -0.963359 12.47 0.266641 7.08C1.37664 2.19 5.64664 0 9.37664 0C9.37664 0 9.37664 0 9.38664 0C13.1166 0 17.3866 2.19 18.4966 7.09C19.7166 12.48 16.4566 17 13.5066 19.84C12.3466 20.95 10.8566 21.51 9.37664 21.51ZM9.37664 1.5C6.46664 1.5 2.72664 3.05 1.73664 7.41C0.656641 12.12 3.61664 16.18 6.29664 18.75C8.02664 20.42 10.7366 20.42 12.4666 18.75C15.1366 16.18 18.0966 12.12 17.0366 7.41C16.0366 3.05 12.2866 1.5 9.37664 1.5Z"
        fill="currentColor" />
</svg>
    