<svg width="1em" height="1em" viewBox="0 0 22 22" fill="none" xmlns="http://www.w3.org/2000/svg">
    <path
        d="M16.94 16.5H6.28999C5.29999 16.5 4.34999 16.08 3.67999 15.35C3.00999 14.62 2.67 13.64 2.75 12.65L3.58 2.69C3.61 2.38 3.49999 2.08001 3.28999 1.85001C3.07999 1.62001 2.79 1.5 2.48 1.5H0.75C0.34 1.5 0 1.16 0 0.75C0 0.34 0.34 0 0.75 0H2.49001C3.22001 0 3.90999 0.309996 4.39999 0.839996C4.66999 1.14 4.87 1.49 4.98 1.88H17.47C18.48 1.88 19.41 2.28 20.09 3C20.76 3.73 21.1 4.68 21.02 5.69L20.48 13.19C20.37 15.02 18.77 16.5 16.94 16.5ZM5.03 3.37L4.25 12.77C4.2 13.35 4.39 13.9 4.78 14.33C5.17 14.76 5.70999 14.99 6.28999 14.99H16.94C17.98 14.99 18.92 14.11 19 13.07L19.54 5.57001C19.58 4.98001 19.39 4.42001 19 4.01001C18.61 3.59001 18.07 3.35999 17.48 3.35999H5.03V3.37Z"
        fill="currentColor" />
    <path
        d="M15 21.5C13.9 21.5 13 20.6 13 19.5C13 18.4 13.9 17.5 15 17.5C16.1 17.5 17 18.4 17 19.5C17 20.6 16.1 21.5 15 21.5ZM15 19C14.72 19 14.5 19.22 14.5 19.5C14.5 19.78 14.72 20 15 20C15.28 20 15.5 19.78 15.5 19.5C15.5 19.22 15.28 19 15 19Z"
        fill="currentColor" />
    <path
        d="M7 21.5C5.9 21.5 5 20.6 5 19.5C5 18.4 5.9 17.5 7 17.5C8.1 17.5 9 18.4 9 19.5C9 20.6 8.1 21.5 7 21.5ZM7 19C6.72 19 6.5 19.22 6.5 19.5C6.5 19.78 6.72 20 7 20C7.28 20 7.5 19.78 7.5 19.5C7.5 19.22 7.28 19 7 19Z"
        fill="currentColor" />
    <path
        d="M19.75 7.5H7.75C7.34 7.5 7 7.16 7 6.75C7 6.34 7.34 6 7.75 6H19.75C20.16 6 20.5 6.34 20.5 6.75C20.5 7.16 20.16 7.5 19.75 7.5Z"
        fill="currentColor" />
</svg>
    