<svg width="1em" height="1em" viewBox="0 0 15 22" fill="none" xmlns="http://www.w3.org/2000/svg">
    <path
        d="M7.25 21.5004C3.25 21.5004 0 18.6304 0 15.1004V11.4004C0 10.9904 0.34 10.6504 0.75 10.6504C1.16 10.6504 1.5 10.9904 1.5 11.4004C1.5 14.0204 3.97 16.0004 7.25 16.0004C10.53 16.0004 13 14.0204 13 11.4004C13 10.9904 13.34 10.6504 13.75 10.6504C14.16 10.6504 14.5 10.9904 14.5 11.4004V15.1004C14.5 18.6304 11.25 21.5004 7.25 21.5004ZM1.5 15.2104C1.57 17.8604 4.12 20.0004 7.25 20.0004C10.38 20.0004 12.93 17.8604 13 15.2104C11.7 16.6204 9.64 17.5004 7.25 17.5004C4.86 17.5004 2.81 16.6204 1.5 15.2104Z"
        fill="currentColor" />
    <path
        d="M7.25 12.5C4.49 12.5 2.00999 11.26 0.799988 9.26C0.279988 8.41 0 7.42 0 6.4C0 4.68 0.770004 3.06 2.16 1.84C3.52 0.65 5.33 0 7.25 0C9.17 0 10.97 0.650002 12.34 1.83C13.73 3.06 14.5 4.68 14.5 6.4C14.5 7.42 14.22 8.4 13.7 9.26C12.49 11.26 10.01 12.5 7.25 12.5ZM7.25 1.5C5.69 1.5 4.23001 2.02 3.14001 2.98C2.08001 3.9 1.5 5.12 1.5 6.4C1.5 7.15 1.69999 7.85 2.07999 8.48C3.02999 10.04 5.01 11 7.25 11C9.49 11 11.47 10.03 12.42 8.48C12.81 7.85 13 7.15 13 6.4C13 5.12 12.42 3.9 11.35 2.96C10.26 2.02 8.81 1.5 7.25 1.5Z"
        fill="currentColor" />
    <path
        d="M7.25 17.5C3.12 17.5 0 14.88 0 11.4V6.4C0 2.87 3.25 0 7.25 0C9.17 0 10.97 0.650002 12.34 1.83C13.73 3.06 14.5 4.68 14.5 6.4V11.4C14.5 14.88 11.38 17.5 7.25 17.5ZM7.25 1.5C4.08 1.5 1.5 3.7 1.5 6.4V11.4C1.5 14.02 3.97 16 7.25 16C10.53 16 13 14.02 13 11.4V6.4C13 5.12 12.42 3.9 11.35 2.96C10.26 2.02 8.81 1.5 7.25 1.5Z"
        fill="currentColor" />
</svg>
    