<svg width="1em" height="1em" viewBox="0 0 22 19" fill="none" xmlns="http://www.w3.org/2000/svg">
    <path
        d="M20.75 6.5H0.75C0.34 6.5 0 6.16 0 5.75C0 5.34 0.34 5 0.75 5H20.75C21.16 5 21.5 5.34 21.5 5.75C21.5 6.16 21.16 6.5 20.75 6.5Z"
        fill="currentColor" />
    <path
        d="M6.75 14.5H4.75C4.34 14.5 4 14.16 4 13.75C4 13.34 4.34 13 4.75 13H6.75C7.16 13 7.5 13.34 7.5 13.75C7.5 14.16 7.16 14.5 6.75 14.5Z"
        fill="currentColor" />
    <path
        d="M13.25 14.5H9.25C8.84 14.5 8.5 14.16 8.5 13.75C8.5 13.34 8.84 13 9.25 13H13.25C13.66 13 14 13.34 14 13.75C14 14.16 13.66 14.5 13.25 14.5Z"
        fill="currentColor" />
    <path
        d="M16.31 18.5H5.19C1.21 18.5 0 17.3 0 13.36V5.14C0 1.2 1.21 0 5.19 0H16.3C20.28 0 21.49 1.2 21.49 5.14V13.35C21.5 17.3 20.29 18.5 16.31 18.5ZM5.19 1.5C2.05 1.5 1.5 2.04 1.5 5.14V13.35C1.5 16.45 2.05 16.99 5.19 16.99H16.3C19.44 16.99 19.99 16.45 19.99 13.35V5.14C19.99 2.04 19.44 1.5 16.3 1.5H5.19Z"
        fill="currentColor" />
</svg>
    