<svg width="1em" height="1em" viewBox="0 0 20 22" fill="none" xmlns="http://www.w3.org/2000/svg">
    <path
        d="M9.75 21.49C9.05 21.49 8.34 21.2199 7.81 20.6899L6.10001 19C5.67001 18.58 5.10999 18.35 4.50999 18.35H3.75C1.68 18.35 0 16.68 0 14.63V3.71997C0 1.66997 1.68 0 3.75 0H15.75C17.82 0 19.5 1.66997 19.5 3.71997V14.63C19.5 16.68 17.82 18.35 15.75 18.35H14.99C14.39 18.35 13.82 18.58 13.4 19L11.69 20.6899C11.16 21.2199 10.45 21.49 9.75 21.49ZM3.75 1.48999C2.51 1.48999 1.5 2.48996 1.5 3.70996V14.62C1.5 15.85 2.51 16.84 3.75 16.84H4.50999C5.50999 16.84 6.45 17.2299 7.16 17.9299L8.87 19.62C9.35999 20.1 10.15 20.1 10.64 19.62L12.35 17.9299C13.06 17.2299 14 16.84 15 16.84H15.75C16.99 16.84 18 15.84 18 14.62V3.70996C18 2.47996 16.99 1.48999 15.75 1.48999H3.75Z"
        fill="currentColor" />
    <path
        d="M8.13023 13.2502H5.45023C5.01023 13.2502 4.60023 13.0402 4.34023 12.6802C4.09023 12.3402 4.03022 11.9203 4.15022 11.5203C4.50022 10.4503 5.36022 9.87022 6.12022 9.35022C6.92022 8.81022 7.37022 8.47026 7.37022 7.89026C7.37022 7.37026 6.95022 6.9502 6.43022 6.9502C5.91022 6.9502 5.49023 7.37026 5.49023 7.89026C5.49023 8.30026 5.15023 8.64026 4.74023 8.64026C4.33023 8.64026 3.99023 8.30026 3.99023 7.89026C3.99023 6.55026 5.08022 5.4502 6.43022 5.4502C7.78022 5.4502 8.87022 6.54026 8.87022 7.89026C8.87022 9.30026 7.81024 10.0202 6.96024 10.6002C6.43024 10.9602 5.93022 11.3002 5.68022 11.7502H8.12022C8.53022 11.7502 8.87022 12.0902 8.87022 12.5002C8.87022 12.9102 8.54023 13.2502 8.13023 13.2502Z"
        fill="currentColor" />
    <path
        d="M13.7899 13.2502C13.3799 13.2502 13.0399 12.9102 13.0399 12.5002V11.8101H11.0799C11.0799 11.8101 11.0799 11.8101 11.0699 11.8101C10.5799 11.8101 10.1299 11.5502 9.87988 11.1302C9.62988 10.7002 9.62988 10.1702 9.87988 9.75018C10.5599 8.58018 11.3499 7.25015 12.0699 6.09015C12.3899 5.58015 12.9999 5.35019 13.5699 5.51019C14.1399 5.68019 14.5399 6.20023 14.5299 6.80023V10.3201H14.7499C15.1599 10.3201 15.4999 10.6601 15.4999 11.0701C15.4999 11.4801 15.1599 11.8201 14.7499 11.8201H14.5399V12.5102C14.5399 12.9202 14.2099 13.2502 13.7899 13.2502ZM13.0399 7.38019C12.4499 8.34019 11.8399 9.37012 11.2899 10.3101H13.0399V7.38019Z"
        fill="currentColor" />
</svg>
    