<svg width="1em" height="1em" viewBox="0 0 22 22" fill="none" xmlns="http://www.w3.org/2000/svg">
    <path
        d="M10.9499 10.5502L9.53985 11.9602C8.75985 12.7402 8.75985 14.0102 9.53985 14.7902C10.3199 15.5702 11.5899 15.5702 12.3699 14.7902L14.5899 12.5702C16.1499 11.0102 16.1499 8.48023 14.5899 6.91023C13.0299 5.35023 10.4999 5.35023 8.92987 6.91023L6.50988 9.33022C5.16988 10.6702 5.16988 12.8402 6.50988 14.1802"
        stroke="currentColor" stroke-width="1.5" stroke-linecap="round" stroke-linejoin="round" />
    <path
        d="M7.75 20.75H13.75C18.75 20.75 20.75 18.75 20.75 13.75V7.75C20.75 2.75 18.75 0.75 13.75 0.75H7.75C2.75 0.75 0.75 2.75 0.75 7.75V13.75C0.75 18.75 2.75 20.75 7.75 20.75Z"
        stroke="currentColor" stroke-width="1.5" stroke-linecap="round" stroke-linejoin="round" />
</svg>
    