<svg width="1em" height="1em" viewBox="0 0 29 29" fill="none" xmlns="http://www.w3.org/2000/svg">
    <path
        d="M20.9993 28.6667H7.02593C3.2926 28.6667 0.919268 26.44 0.705934 22.72L0.012601 11.72C-0.0940657 10.0533 0.479268 8.45333 1.62593 7.24C2.75927 6.02667 4.35927 5.33333 6.0126 5.33333C6.43927 5.33333 6.8526 5.08 7.0526 4.68L8.0126 2.77333C8.79927 1.21333 10.7726 0 12.4926 0H15.5459C17.2659 0 19.2259 1.21333 20.0126 2.76L20.9726 4.70667C21.1726 5.08 21.5726 5.33333 22.0126 5.33333C23.6659 5.33333 25.2659 6.02667 26.3993 7.24C27.5459 8.46667 28.1193 10.0533 28.0126 11.72L27.3193 22.7333C27.0793 26.5067 24.7726 28.6667 20.9993 28.6667ZM12.4926 2C11.5059 2 10.2526 2.77333 9.79927 3.66667L8.83927 5.58667C8.27927 6.66667 7.19927 7.33333 6.0126 7.33333C4.8926 7.33333 3.8526 7.78667 3.07927 8.6C2.31927 9.41333 1.9326 10.48 2.0126 11.5867L2.70593 22.6C2.86593 25.2933 4.31927 26.6667 7.02593 26.6667H20.9993C23.6926 26.6667 25.1459 25.2933 25.3193 22.6L26.0126 11.5867C26.0793 10.48 25.7059 9.41333 24.9459 8.6C24.1726 7.78667 23.1326 7.33333 22.0126 7.33333C20.8259 7.33333 19.7459 6.66667 19.1859 5.61333L18.2126 3.66667C17.7726 2.78667 16.5193 2.01333 15.5326 2.01333H12.4926V2Z"
        fill="currentColor" />
    <path
        d="M16.0127 10H12.0127C11.466 10 11.0127 9.54667 11.0127 9C11.0127 8.45333 11.466 8 12.0127 8H16.0127C16.5594 8 17.0127 8.45333 17.0127 9C17.0127 9.54667 16.5594 10 16.0127 10Z"
        fill="currentColor" />
    <path
        d="M14.013 23.3346C11.0664 23.3346 8.67969 20.948 8.67969 18.0013C8.67969 15.0546 11.0664 12.668 14.013 12.668C16.9597 12.668 19.3464 15.0546 19.3464 18.0013C19.3464 20.948 16.9597 23.3346 14.013 23.3346ZM14.013 14.668C12.173 14.668 10.6797 16.1613 10.6797 18.0013C10.6797 19.8413 12.173 21.3346 14.013 21.3346C15.853 21.3346 17.3464 19.8413 17.3464 18.0013C17.3464 16.1613 15.853 14.668 14.013 14.668Z"
        fill="currentColor" />
</svg>
    