<svg width="1em" height="1em" viewBox="0 0 29 29" fill="none" xmlns="http://www.w3.org/2000/svg">
    <path
        d="M10.333 0.5H17C17.2705 0.500001 17.5 0.729476 17.5 1C17.5 1.27052 17.2705 1.5 17 1.5H10.333C7.22457 1.50004 4.96814 2.04749 3.50781 3.50781C2.04749 4.96814 1.50004 7.22457 1.5 10.333V18.333C1.5 21.4414 2.04768 23.6978 3.50781 25.1582C4.96814 26.6185 7.22457 27.167 10.333 27.167H18.333C21.4416 27.167 23.6978 26.6186 25.1582 25.1582C26.6186 23.6978 27.167 21.4416 27.167 18.333V11.667C27.167 11.3965 27.3965 11.167 27.667 11.167C27.9374 11.1672 28.167 11.3966 28.167 11.667V18.333C28.167 21.8956 27.4035 24.3191 25.8613 25.8613C24.3191 27.4035 21.8956 28.167 18.333 28.167H10.333C6.77071 28.1669 4.34783 27.4034 2.80566 25.8613C1.26346 24.3191 0.5 21.8956 0.5 18.333V10.333C0.500046 6.77058 1.26351 4.34782 2.80566 2.80566C4.34782 1.26351 6.77058 0.500046 10.333 0.5Z"
        fill="#292D32" stroke="currentColor" />
    <path
        d="M16.8105 0.540039C16.9849 0.465331 17.2009 0.50142 17.3613 0.654297L28.0195 11.3135C28.159 11.453 28.2042 11.6763 28.127 11.8564C28.0442 12.0495 27.8628 12.1669 27.667 12.167H22.333C20.0992 12.1669 18.6828 11.7285 17.8105 10.8564C16.9383 9.98419 16.5 8.56711 16.5 6.33301V1C16.5 0.793373 16.6251 0.612066 16.7959 0.544922L16.8037 0.542969L16.8105 0.540039ZM17.5 6.33301C17.5 8.05334 17.7123 9.33245 18.5234 10.1436C19.3345 10.9545 20.613 11.167 22.333 11.167H26.46L25.6064 10.3135L18.3535 3.05957L17.5 2.20605V6.33301Z"
        fill="#292D32" stroke="currentColor" />
</svg>
    