<svg width="1em" height="1em" viewBox="0 0 12 16" fill="none" xmlns="http://www.w3.org/2000/svg">
    <path
        d="M8.37752 15.3075C8.23502 15.3075 8.09252 15.255 7.98002 15.1425C7.76252 14.925 7.76252 14.565 7.98002 14.3475L10.095 12.2325C10.3125 12.015 10.6725 12.015 10.89 12.2325C11.1075 12.45 11.1075 12.81 10.89 13.0275L8.77502 15.1425C8.66252 15.255 8.52002 15.3075 8.37752 15.3075Z"
        fill="currentColor" />
    <path
        d="M10.4925 15.3075C10.35 15.3075 10.2075 15.255 10.095 15.1425L7.98002 13.0275C7.76252 12.81 7.76252 12.45 7.98002 12.2325C8.19752 12.015 8.55752 12.015 8.77502 12.2325L10.89 14.3475C11.1075 14.565 11.1075 14.925 10.89 15.1425C10.7775 15.255 10.635 15.3075 10.4925 15.3075Z"
        fill="currentColor" />
    <path
        d="M5.80498 7.7775C5.78248 7.7775 5.76748 7.7775 5.74498 7.7775C5.70748 7.77 5.65498 7.77 5.60998 7.7775C3.43498 7.71 1.79248 6 1.79248 3.8925C1.79248 1.7475 3.53998 0 5.68498 0C7.82998 0 9.57748 1.7475 9.57748 3.8925C9.56998 6 7.91998 7.71 5.82748 7.7775C5.81998 7.7775 5.81248 7.7775 5.80498 7.7775ZM5.68498 1.125C4.16248 1.125 2.91748 2.37 2.91748 3.8925C2.91748 5.3925 4.08748 6.6 5.57998 6.6525C5.62498 6.645 5.72248 6.645 5.81998 6.6525C7.28998 6.585 8.44498 5.3775 8.45248 3.8925C8.45248 2.37 7.20748 1.125 5.68498 1.125Z"
        fill="currentColor" />
    <path
        d="M5.685 15.9823C4.155 15.9823 2.7075 15.5848 1.6125 14.8498C0.57 14.1523 0 13.1998 0 12.1723C0 11.1448 0.5775 10.1998 1.6125 9.50977C3.855 8.00977 7.5 8.00977 9.7425 9.50977C9.9975 9.68227 10.0725 10.0348 9.9 10.2898C9.7275 10.5523 9.375 10.6198 9.12 10.4473C7.2525 9.20227 4.1025 9.20227 2.235 10.4473C1.515 10.9273 1.125 11.5348 1.125 12.1723C1.125 12.8098 1.5225 13.4323 2.235 13.9123C3.1425 14.5198 4.365 14.8498 5.6775 14.8498C5.985 14.8498 6.24 15.1048 6.24 15.4123C6.24 15.7198 5.9925 15.9823 5.685 15.9823Z"
        fill="currentColor" />
</svg>
    