<svg width="1em" height="1em" viewBox="0 0 29 29" fill="none" xmlns="http://www.w3.org/2000/svg">
    <g opacity="0.4">
        <path
            d="M10.75 16.4166C10.75 17.71 11.75 18.75 12.9767 18.75H15.4833C16.55 18.75 17.4167 17.8433 17.4167 16.71C17.4167 15.4966 16.8833 15.0567 16.0967 14.7767L12.0833 13.3766C11.2967 13.0966 10.7633 12.67 10.7633 11.4433C10.7633 10.3233 11.63 9.40332 12.6967 9.40332H15.2033C16.43 9.40332 17.43 10.4433 17.43 11.7367"
            stroke="currentColor" stroke-width="1.5" stroke-linecap="round" stroke-linejoin="round" />
        <path d="M14.0837 8.08301V20.083" stroke="currentColor" stroke-width="1.5" stroke-linecap="round"
            stroke-linejoin="round" />
    </g>
    <path
        d="M27.4167 14.0833C27.4167 21.4433 21.4433 27.4167 14.0833 27.4167C6.72333 27.4167 0.75 21.4433 0.75 14.0833C0.75 6.72333 6.72333 0.75 14.0833 0.75"
        stroke="currentColor" stroke-width="1.5" stroke-linecap="round" stroke-linejoin="round" />
    <path d="M20.7502 2.08301V7.41634H26.0836" stroke="currentColor" stroke-width="1.5"
        stroke-linecap="round" stroke-linejoin="round" />
    <path d="M27.4169 0.75L20.7502 7.41667" stroke="currentColor" stroke-width="1.5"
        stroke-linecap="round" stroke-linejoin="round" />
</svg>
    