<svg width="1em" height="1em" viewBox="0 0 20 6" fill="none" xmlns="http://www.w3.org/2000/svg">
    <path
        d="M2.75 0.75C1.65 0.75 0.75 1.65 0.75 2.75C0.75 3.85 1.65 4.75 2.75 4.75C3.85 4.75 4.75 3.85 4.75 2.75C4.75 1.65 3.85 0.75 2.75 0.75Z"
        stroke="currentColor" stroke-width="1.5" />
    <path
        d="M16.75 0.75C15.65 0.75 14.75 1.65 14.75 2.75C14.75 3.85 15.65 4.75 16.75 4.75C17.85 4.75 18.75 3.85 18.75 2.75C18.75 1.65 17.85 0.75 16.75 0.75Z"
        stroke="currentColor" stroke-width="1.5" />
    <path
        d="M9.75 0.75C8.65 0.75 7.75 1.65 7.75 2.75C7.75 3.85 8.65 4.75 9.75 4.75C10.85 4.75 11.75 3.85 11.75 2.75C11.75 1.65 10.85 0.75 9.75 0.75Z"
        stroke="currentColor" stroke-width="1.5" />
</svg>
    