<svg width="1em" height="1em" viewBox="0 0 20 20" fill="none" xmlns="http://www.w3.org/2000/svg">
    <path
        d="M7.104 15.125C7.01234 15.125 6.92984 15.1067 6.83817 15.07C6.5815 14.9692 6.4165 14.7125 6.4165 14.4375V8.9375C6.4165 8.56167 6.72817 8.25 7.104 8.25C7.47984 8.25 7.7915 8.56167 7.7915 8.9375V12.7783L8.4515 12.1183C8.71734 11.8525 9.15734 11.8525 9.42317 12.1183C9.689 12.3842 9.689 12.8242 9.42317 13.09L7.58984 14.9233C7.4615 15.0517 7.27817 15.125 7.104 15.125Z"
        fill="currentColor" />
    <path
        d="M7.10399 15.125C6.92982 15.125 6.75566 15.0608 6.61816 14.9233L4.78482 13.09C4.51899 12.8242 4.51899 12.3842 4.78482 12.1183C5.05066 11.8525 5.49066 11.8525 5.75649 12.1183L7.58982 13.9517C7.85566 14.2175 7.85566 14.6575 7.58982 14.9233C7.45232 15.0608 7.27816 15.125 7.10399 15.125Z"
        fill="currentColor" />
    <path
        d="M12.6042 19.7083H7.10417C2.12667 19.7083 0 17.5817 0 12.6042V7.10417C0 2.12667 2.12667 0 7.10417 0H11.6875C12.0633 0 12.375 0.311667 12.375 0.6875C12.375 1.06333 12.0633 1.375 11.6875 1.375H7.10417C2.87833 1.375 1.375 2.87833 1.375 7.10417V12.6042C1.375 16.83 2.87833 18.3333 7.10417 18.3333H12.6042C16.83 18.3333 18.3333 16.83 18.3333 12.6042V8.02083C18.3333 7.645 18.645 7.33333 19.0208 7.33333C19.3967 7.33333 19.7083 7.645 19.7083 8.02083V12.6042C19.7083 17.5817 17.5817 19.7083 12.6042 19.7083Z"
        fill="currentColor" />
    <path
        d="M19.0208 8.70893H15.3542C12.2192 8.70893 11 7.48977 11 4.35477V0.6881C11 0.4131 11.165 0.156433 11.4217 0.0556C11.6783 -0.0544 11.9717 0.00976672 12.1733 0.202267L19.5067 7.5356C19.6992 7.7281 19.7633 8.0306 19.6533 8.28727C19.5433 8.54393 19.2958 8.70893 19.0208 8.70893ZM12.375 2.34727V4.35477C12.375 6.71977 12.9892 7.33393 15.3542 7.33393H17.3617L12.375 2.34727Z"
        fill="currentColor" />
</svg>
    