<svg width="1em" height="1em" viewBox="0 0 20 17" fill="none" xmlns="http://www.w3.org/2000/svg">
    <path
        d="M9.66619 12.2376C7.47535 12.2376 5.69702 10.4593 5.69702 8.26848C5.69702 6.07765 7.47535 4.29932 9.66619 4.29932C11.857 4.29932 13.6354 6.07765 13.6354 8.26848C13.6354 10.4593 11.857 12.2376 9.66619 12.2376ZM9.66619 5.67432C8.23619 5.67432 7.07202 6.83848 7.07202 8.26848C7.07202 9.69848 8.23619 10.8626 9.66619 10.8626C11.0962 10.8626 12.2604 9.69848 12.2604 8.26848C12.2604 6.83848 11.0962 5.67432 9.66619 5.67432Z"
        fill="currentColor" />
    <path
        d="M9.66625 16.5367C6.21958 16.5367 2.96542 14.52 0.72875 11.0183C-0.242917 9.50583 -0.242917 7.04 0.72875 5.51833C2.97458 2.01667 6.22875 0 9.66625 0C13.1038 0 16.3579 2.01667 18.5946 5.51833C19.5662 7.03083 19.5662 9.49667 18.5946 11.0183C16.3579 14.52 13.1038 16.5367 9.66625 16.5367ZM9.66625 1.375C6.70542 1.375 3.87292 3.15333 1.89292 6.26083C1.20542 7.33333 1.20542 9.20333 1.89292 10.2758C3.87292 13.3833 6.70542 15.1617 9.66625 15.1617C12.6271 15.1617 15.4596 13.3833 17.4396 10.2758C18.1271 9.20333 18.1271 7.33333 17.4396 6.26083C15.4596 3.15333 12.6271 1.375 9.66625 1.375Z"
        fill="currentColor" />
</svg>
    