<svg width="1em" height="1em" viewBox="0 0 23 21" fill="none" xmlns="http://www.w3.org/2000/svg">
    <path
        d="M12.82 20.759C12.59 20.759 12.36 20.719 12.14 20.639C11.39 20.359 10.91 19.659 10.91 18.859V12.409H8.56997C7.80997 12.409 7.14996 11.979 6.83996 11.289C6.52996 10.599 6.64996 9.81897 7.14996 9.24897L14.72 0.64897C15.25 0.04897 16.07 -0.16103 16.82 0.12897C17.57 0.40897 18.0499 1.10897 18.0499 1.90897V8.35897H20.39C21.15 8.35897 21.81 8.78897 22.12 9.47897C22.43 10.169 22.31 10.949 21.81 11.519L14.24 20.119C13.87 20.539 13.35 20.759 12.82 20.759ZM16.13 1.49897C16.04 1.49897 15.93 1.52897 15.84 1.63897L8.26995 10.249C8.10995 10.429 8.16997 10.609 8.19997 10.679C8.22997 10.749 8.32997 10.919 8.56997 10.919H11.66C12.07 10.919 12.41 11.259 12.41 11.669V18.869C12.41 19.119 12.59 19.219 12.67 19.249C12.75 19.279 12.9499 19.329 13.1099 19.139L20.68 10.529C20.84 10.349 20.78 10.169 20.75 10.099C20.72 10.029 20.62 9.85897 20.38 9.85897H17.29C16.88 9.85897 16.54 9.51897 16.54 9.10897V1.90897C16.54 1.65897 16.36 1.55897 16.28 1.52897C16.25 1.50897 16.19 1.49897 16.13 1.49897Z"
        fill="currentColor" />
    <path
        d="M7.75 3.12891H0.75C0.34 3.12891 0 2.78891 0 2.37891C0 1.96891 0.34 1.62891 0.75 1.62891H7.75C8.16 1.62891 8.5 1.96891 8.5 2.37891C8.5 2.78891 8.16 3.12891 7.75 3.12891Z"
        fill="currentColor" />
    <path
        d="M6.75 19.1289H0.75C0.34 19.1289 0 18.7889 0 18.3789C0 17.9689 0.34 17.6289 0.75 17.6289H6.75C7.16 17.6289 7.5 17.9689 7.5 18.3789C7.5 18.7889 7.16 19.1289 6.75 19.1289Z"
        fill="currentColor" />
    <path
        d="M3.75 11.1289H0.75C0.34 11.1289 0 10.7889 0 10.3789C0 9.96891 0.34 9.62891 0.75 9.62891H3.75C4.16 9.62891 4.5 9.96891 4.5 10.3789C4.5 10.7889 4.16 11.1289 3.75 11.1289Z"
        fill="currentColor" />
</svg>
    