<svg width="1em" height="1em" viewBox="0 0 22 22" fill="none" xmlns="http://www.w3.org/2000/svg">
    <path
        d="M10.75 20.75C16.2728 20.75 20.75 16.2728 20.75 10.75C20.75 5.22715 16.2728 0.75 10.75 0.75C5.22715 0.75 0.75 5.22715 0.75 10.75C0.75 16.2728 5.22715 20.75 10.75 20.75Z"
        stroke="currentColor" stroke-width="1.5" stroke-linecap="round" stroke-linejoin="round" />
    <path d="M6.7501 1.75H7.7501C5.8001 7.59 5.8001 13.91 7.7501 19.75H6.7501" stroke="currentColor"
        stroke-width="1.5" stroke-linecap="round" stroke-linejoin="round" />
    <path d="M13.75 1.75C15.7 7.59 15.7 13.91 13.75 19.75" stroke="currentColor" stroke-width="1.5"
        stroke-linecap="round" stroke-linejoin="round" />
    <path d="M1.75 14.75V13.75C7.59 15.7 13.91 15.7 19.75 13.75V14.75" stroke="currentColor"
        stroke-width="1.5" stroke-linecap="round" stroke-linejoin="round" />
    <path d="M1.75 7.7501C7.59 5.8001 13.91 5.8001 19.75 7.7501" stroke="currentColor"
        stroke-width="1.5"
        stroke-linecap="round" stroke-linejoin="round" />
</svg>
    