<svg width="1em" height="1em" viewBox="0 0 18 18" fill="none" xmlns="http://www.w3.org/2000/svg">
    <path
        d="M13.9583 7.91667C13.6166 7.91667 13.3333 7.63333 13.3333 7.29167V5.625C13.3333 3 12.5916 1.25 8.95825 1.25C5.32492 1.25 4.58325 3 4.58325 5.625V7.29167C4.58325 7.63333 4.29992 7.91667 3.95825 7.91667C3.61659 7.91667 3.33325 7.63333 3.33325 7.29167V5.625C3.33325 3.20833 3.91659 0 8.95825 0C13.9999 0 14.5833 3.20833 14.5833 5.625V7.29167C14.5833 7.63333 14.2999 7.91667 13.9583 7.91667Z"
        fill="currentColor" />
    <path
        d="M8.95833 14.9997C7.46667 14.9997 6.25 13.783 6.25 12.2913C6.25 10.7997 7.46667 9.58301 8.95833 9.58301C10.45 9.58301 11.6667 10.7997 11.6667 12.2913C11.6667 13.783 10.45 14.9997 8.95833 14.9997ZM8.95833 10.833C8.15833 10.833 7.5 11.4913 7.5 12.2913C7.5 13.0913 8.15833 13.7497 8.95833 13.7497C9.75833 13.7497 10.4167 13.0913 10.4167 12.2913C10.4167 11.4913 9.75833 10.833 8.95833 10.833Z"
        fill="currentColor" />
    <path
        d="M13.125 17.916H4.79167C1.11667 17.916 0 16.7993 0 13.1243V11.4577C0 7.78268 1.11667 6.66602 4.79167 6.66602H13.125C16.8 6.66602 17.9167 7.78268 17.9167 11.4577V13.1243C17.9167 16.7993 16.8 17.916 13.125 17.916ZM4.79167 7.91602C1.80833 7.91602 1.25 8.48268 1.25 11.4577V13.1243C1.25 16.0993 1.80833 16.666 4.79167 16.666H13.125C16.1083 16.666 16.6667 16.0993 16.6667 13.1243V11.4577C16.6667 8.48268 16.1083 7.91602 13.125 7.91602H4.79167Z"
        fill="currentColor" />
</svg>
    