<svg width="1em" height="1em" viewBox="0 0 28 25" fill="none" xmlns="http://www.w3.org/2000/svg">
    <path
        d="M0.75 6.67278V19.6461C0.75 22.1794 2.55 23.2194 4.73667 21.9661L7.87 20.1794C8.55 19.7928 9.68333 19.7528 10.39 20.1128L17.39 23.6194C18.0967 23.9661 19.23 23.9394 19.91 23.5528L25.6833 20.2461C26.4167 19.8194 27.03 18.7794 27.03 17.9261V4.95278C27.03 2.41945 25.23 1.37945 23.0433 2.63278L19.91 4.41945C19.23 4.80611 18.0967 4.84611 17.39 4.48611L10.39 0.99278C9.68333 0.646113 8.55 0.67278 7.87 1.05945L2.09667 4.36611C1.35 4.79278 0.75 5.83278 0.75 6.67278Z"
        stroke="currentColor" stroke-width="1.5" stroke-linecap="round" stroke-linejoin="round" />
    <path d="M9.11035 1.63281V18.9661" stroke="currentColor" stroke-width="1.5"
        stroke-linecap="round"
        stroke-linejoin="round" />
    <path d="M18.6699 5.12622V22.9662" stroke="currentColor" stroke-width="1.5"
        stroke-linecap="round"
        stroke-linejoin="round" />
</svg>
    