<svg width="1em" height="1em" viewBox="0 0 20 12" fill="none" xmlns="http://www.w3.org/2000/svg">
    <path
        d="M18.75 1.5H0.75C0.34 1.5 0 1.16 0 0.75C0 0.34 0.34 0 0.75 0H18.75C19.16 0 19.5 0.34 19.5 0.75C19.5 1.16 19.16 1.5 18.75 1.5Z"
        fill="currentColor" />
    <path
        d="M18.75 6.5H0.75C0.34 6.5 0 6.16 0 5.75C0 5.34 0.34 5 0.75 5H18.75C19.16 5 19.5 5.34 19.5 5.75C19.5 6.16 19.16 6.5 18.75 6.5Z"
        fill="currentColor" />
    <path
        d="M18.75 11.5H0.75C0.34 11.5 0 11.16 0 10.75C0 10.34 0.34 10 0.75 10H18.75C19.16 10 19.5 10.34 19.5 10.75C19.5 11.16 19.16 11.5 18.75 11.5Z"
        fill="currentColor" />
</svg>
    