<svg width="1em" height="1em" viewBox="0 0 18 22" fill="none" xmlns="http://www.w3.org/2000/svg">
    <path
        d="M8.79597 1.71997C5.48597 1.71997 2.79597 4.40997 2.79597 7.71997V10.61C2.79597 11.22 2.53597 12.15 2.22597 12.67L1.07597 14.58C0.365967 15.76 0.855967 17.07 2.15597 17.51C6.46597 18.95 11.116 18.95 15.426 17.51C16.636 17.11 17.166 15.68 16.506 14.58L15.356 12.67C15.056 12.15 14.796 11.22 14.796 10.61V7.71997C14.796 4.41997 12.096 1.71997 8.79597 1.71997Z"
        stroke="currentColor" stroke-width="1.5" stroke-miterlimit="10" stroke-linecap="round" />
    <path
        d="M10.6458 2.01C10.3358 1.92 10.0158 1.85 9.6858 1.81C8.7258 1.69 7.8058 1.76 6.9458 2.01C7.2358 1.27 7.9558 0.75 8.7958 0.75C9.6358 0.75 10.3558 1.27 10.6458 2.01Z"
        stroke="currentColor" stroke-width="1.5" stroke-miterlimit="10" stroke-linecap="round"
        stroke-linejoin="round" />
    <path opacity="0.4"
        d="M11.7959 17.8701C11.7959 19.5201 10.4459 20.8701 8.7959 20.8701C7.9759 20.8701 7.2159 20.5301 6.6759 19.9901C6.1359 19.4501 5.7959 18.6901 5.7959 17.8701"
        stroke="currentColor" stroke-width="1.5" stroke-miterlimit="10" />
</svg>
    