<svg width="1em" height="1em" viewBox="0 0 22 22" fill="none" xmlns="http://www.w3.org/2000/svg">
    <path
        d="M20.75 7.02V2.98C20.75 1.39 20.11 0.75 18.52 0.75H14.48C12.89 0.75 12.25 1.39 12.25 2.98V7.02C12.25 8.61 12.89 9.25 14.48 9.25H18.52C20.11 9.25 20.75 8.61 20.75 7.02Z"
        stroke="currentColor" stroke-width="1.5" stroke-linecap="round" stroke-linejoin="round" />
    <path
        d="M9.25 7.27V2.73C9.25 1.32 8.61 0.75 7.02 0.75H2.98C1.39 0.75 0.75 1.32 0.75 2.73V7.26C0.75 8.68 1.39 9.24 2.98 9.24H7.02C8.61 9.25 9.25 8.68 9.25 7.27Z"
        stroke="currentColor" stroke-width="1.5" stroke-linecap="round" stroke-linejoin="round" />
    <path
        d="M9.25 18.52V14.48C9.25 12.89 8.61 12.25 7.02 12.25H2.98C1.39 12.25 0.75 12.89 0.75 14.48V18.52C0.75 20.11 1.39 20.75 2.98 20.75H7.02C8.61 20.75 9.25 20.11 9.25 18.52Z"
        stroke="currentColor" stroke-width="1.5" stroke-linecap="round" stroke-linejoin="round" />
    <path d="M13.75 14.25H19.75" stroke="currentColor" stroke-width="1.5" stroke-linecap="round" />
    <path d="M13.75 18.25H19.75" stroke="currentColor" stroke-width="1.5" stroke-linecap="round" />
</svg>
    