<svg width="1em" height="1em" viewBox="0 0 20 20" fill="none" xmlns="http://www.w3.org/2000/svg">
    <path
        d="M9.85417 19.7083C4.41833 19.7083 0 15.29 0 9.85417C0 4.41833 4.41833 0 9.85417 0C15.29 0 19.7083 4.41833 19.7083 9.85417C19.7083 15.29 15.29 19.7083 9.85417 19.7083ZM9.85417 1.375C5.17917 1.375 1.375 5.17917 1.375 9.85417C1.375 14.5292 5.17917 18.3333 9.85417 18.3333C14.5292 18.3333 18.3333 14.5292 18.3333 9.85417C18.3333 5.17917 14.5292 1.375 9.85417 1.375Z"
        fill="currentColor" />
    <path
        d="M13.5208 10.542H6.1875C5.81167 10.542 5.5 10.2303 5.5 9.85449C5.5 9.47866 5.81167 9.16699 6.1875 9.16699H13.5208C13.8967 9.16699 14.2083 9.47866 14.2083 9.85449C14.2083 10.2303 13.8967 10.542 13.5208 10.542Z"
        fill="currentColor" />
    <path
        d="M9.854 14.2083C9.47817 14.2083 9.1665 13.8967 9.1665 13.5208V6.1875C9.1665 5.81167 9.47817 5.5 9.854 5.5C10.2298 5.5 10.5415 5.81167 10.5415 6.1875V13.5208C10.5415 13.8967 10.2298 14.2083 9.854 14.2083Z"
        fill="currentColor" />
</svg>
    