<svg width="1em" height="1em" viewBox="0 0 20 20" fill="none" xmlns="http://www.w3.org/2000/svg">
    <path
        d="M13.4385 0.887695C15.4701 0.207284 17.0089 0.457763 17.9082 1.34863C18.7485 2.1812 19.0231 3.59127 18.4932 5.43945L18.376 5.81543L15.5459 14.3057C14.8954 16.2523 14.1787 17.372 13.5264 18.001C12.8864 18.618 12.2978 18.7734 11.8398 18.7734C11.3818 18.7734 10.7928 18.6185 10.1543 18.0029C9.50337 17.3754 8.79004 16.2577 8.14453 14.3164V14.3154L7.4248 12.1553L7.3457 11.9189L7.1084 11.8398L4.94824 11.1191C3.01185 10.4737 1.89691 9.7603 1.27051 9.10938C0.655924 8.47072 0.5 7.88202 0.5 7.42383C0.500009 6.97125 0.655224 6.38194 1.27051 5.74023C1.89735 5.08663 3.01317 4.36801 4.94922 3.71777L4.94824 3.7168L13.4385 0.888672V0.887695ZM15.832 1.00977C15.1631 0.967068 14.3992 1.09023 13.5918 1.35938L5.10156 4.19922C3.67763 4.67557 2.67453 5.2079 2.01758 5.73926C1.37682 6.25766 0.990253 6.84051 0.990234 7.42383C0.990234 8.00739 1.37706 8.59089 2.01855 9.1084C2.67564 9.63844 3.67822 10.1665 5.10156 10.6377V10.6387L7.62207 11.4785L7.62793 11.4805C7.69321 11.5012 7.75249 11.5598 7.77344 11.625L7.77539 11.6318L8.61523 14.1523C9.08665 15.5765 9.61844 16.5791 10.1514 17.2363C10.6716 17.8778 11.2572 18.2636 11.8398 18.2637C12.4233 18.2637 13.0069 17.8764 13.5254 17.2354C13.9902 16.6606 14.4548 15.8214 14.8828 14.667L15.0645 14.1523L17.8945 5.66211V5.66113C18.1638 4.84812 18.2848 4.08151 18.2393 3.41113C18.1937 2.74126 17.9786 2.13496 17.5439 1.7002C17.1081 1.26439 16.5004 1.05246 15.832 1.00977Z"
        fill="#292D32" stroke="currentColor" />
    <path
        d="M11.1338 7.52734C11.2285 7.43264 11.3916 7.43262 11.4863 7.52734C11.581 7.62208 11.581 7.78517 11.4863 7.87988V7.88086L7.90625 11.4707L7.89453 11.4824C7.86428 11.5148 7.80485 11.5439 7.72949 11.5439C7.6651 11.5438 7.60489 11.5209 7.55371 11.4697C7.45899 11.375 7.45898 11.2119 7.55371 11.1172V11.1162L11.1328 7.52637L11.1338 7.52734Z"
        fill="#292D32" stroke="currentColor" />
</svg>
    