<svg width="1em" height="1em" viewBox="0 0 21 21" fill="none" xmlns="http://www.w3.org/2000/svg">
    <path
        d="M20.0903 15.7236V15.7185C19.9227 13.4601 17.8463 11.7542 15.4509 11.9096C14.1261 11.9936 12.9852 12.6301 12.2498 13.5594L8.63776 11.8943C8.77024 11.4513 8.82701 10.9904 8.79187 10.5219C8.75942 10.0458 8.63235 9.59261 8.4431 9.17505L11.7794 7.07197C12.6391 7.8969 13.8639 8.38066 15.1859 8.2941C16.3377 8.22026 17.4083 7.71613 18.1707 6.89629C19.747 5.1904 19.5631 2.60101 17.7517 1.11409C16.8811 0.396085 15.7456 0.0396311 14.5884 0.108376C12.1903 0.26878 10.3789 2.22164 10.5438 4.48003C10.5817 4.9587 10.7033 5.40936 10.8926 5.82692L7.56172 7.93C6.70196 7.10506 5.47992 6.62131 4.16055 6.70787C1.75703 6.86319 -0.0543991 8.81605 0.110522 11.0744C0.267332 13.3328 2.34912 15.0413 4.74724 14.8885C5.89899 14.8147 6.96962 14.3156 7.73205 13.4958C7.80234 13.4118 7.87263 13.3277 7.94022 13.2412L11.5523 14.9012C11.4252 15.3417 11.3684 15.8026 11.3982 16.2812C11.5631 18.5396 13.6368 20.2455 16.0403 20.0902C18.4384 19.9349 20.2498 17.982 20.0903 15.7236ZM14.7047 1.60039C15.4347 1.55456 16.1565 1.78371 16.7108 2.23692C17.265 2.69522 17.603 3.33683 17.6517 4.02174C17.7571 5.45774 16.6053 6.70278 15.0805 6.80208C13.5584 6.90138 12.239 5.81674 12.1335 4.38074C12.0281 2.94473 13.1799 1.69969 14.7047 1.60039ZM4.6445 13.3965C3.11966 13.4958 1.80029 12.4111 1.69485 10.9802C1.58941 9.54168 2.73304 8.29919 4.26059 8.19989C4.99327 8.14897 5.71784 8.37812 6.26668 8.83641C6.82092 9.28962 7.15888 9.93124 7.21295 10.6161C7.31839 12.0547 6.16665 13.2972 4.6445 13.3965ZM15.9294 18.5982C14.41 18.6975 13.0879 17.6128 12.9825 16.1768C12.877 14.7434 14.0288 13.5009 15.5536 13.4016C17.0812 13.3074 18.4006 14.3869 18.506 15.8229C18.606 17.2615 17.457 18.504 15.9294 18.5982Z"
        fill="currentColor" stroke="currentColor" stroke-width="0.2" />
</svg>
    