<svg width="1em" height="1em" viewBox="0 0 9 9" fill="none" xmlns="http://www.w3.org/2000/svg">
    <path
        d="M0.7475 8.7675C0.5575 8.7675 0.3675 8.6975 0.2175 8.5475C-0.0725 8.2575 -0.0725 7.7775 0.2175 7.4875L7.4875 0.2175C7.7775 -0.0725 8.2575 -0.0725 8.5475 0.2175C8.8375 0.5075 8.8375 0.9875 8.5475 1.2775L1.2775 8.5475C1.1375 8.6975 0.9475 8.7675 0.7475 8.7675Z"
        fill="currentColor" />
    <path
        d="M8.02751 8.7675C7.83751 8.7675 7.64751 8.6975 7.49751 8.5475L0.22751 1.2775C-0.0624902 0.9875 -0.0624902 0.5075 0.22751 0.2175C0.51751 -0.0725 0.99751 -0.0725 1.28751 0.2175L8.55751 7.4875C8.84751 7.7775 8.84751 8.2575 8.55751 8.5475C8.40751 8.6975 8.21751 8.7675 8.02751 8.7675Z"
        fill="currentColor" />
</svg>
    