<svg width="1em" height="1em" viewBox="0 0 20 22" fill="none" xmlns="http://www.w3.org/2000/svg">
    <path
        d="M18.7536 5.48046C18.7336 5.48046 18.7036 5.48046 18.6736 5.48046C13.3836 4.95046 8.10358 4.75046 2.87358 5.28046L0.833578 5.48046C0.413578 5.52046 0.0435777 5.22046 0.00357768 4.80046C-0.0364223 4.38046 0.263578 4.02046 0.673578 3.98046L2.71358 3.78046C8.03358 3.24046 13.4236 3.45046 18.8236 3.98046C19.2336 4.02046 19.5336 4.39046 19.4936 4.80046C19.4636 5.19046 19.1336 5.48046 18.7536 5.48046Z"
        fill="currentColor" />
    <path
        d="M6.25367 4.47C6.21367 4.47 6.17367 4.47 6.12367 4.46C5.72367 4.39 5.44367 4 5.51367 3.6L5.73367 2.29C5.89367 1.33 6.11367 0 8.44367 0H11.0637C13.4037 0 13.6237 1.38 13.7737 2.3L13.9937 3.6C14.0637 4.01 13.7837 4.4 13.3837 4.46C12.9737 4.53 12.5837 4.25 12.5237 3.85L12.3037 2.55C12.1637 1.68 12.1337 1.51 11.0737 1.51H8.45367C7.39367 1.51 7.37367 1.65 7.22367 2.54L6.99367 3.84C6.93367 4.21 6.61367 4.47 6.25367 4.47Z"
        fill="currentColor" />
    <path
        d="M12.9643 21.4996H6.54429C3.05429 21.4996 2.91429 19.5696 2.80429 18.0096L2.15429 7.93959C2.12429 7.52959 2.44429 7.16959 2.85429 7.13959C3.27429 7.11959 3.62429 7.42959 3.65429 7.83959L4.30429 17.9096C4.41429 19.4296 4.45429 19.9996 6.54429 19.9996H12.9643C15.0643 19.9996 15.1043 19.4296 15.2043 17.9096L15.8543 7.83959C15.8843 7.42959 16.2443 7.11959 16.6543 7.13959C17.0643 7.16959 17.3843 7.51959 17.3543 7.93959L16.7043 18.0096C16.5943 19.5696 16.4543 21.4996 12.9643 21.4996Z"
        fill="currentColor" />
    <path
        d="M11.414 16H8.08398C7.67398 16 7.33398 15.66 7.33398 15.25C7.33398 14.84 7.67398 14.5 8.08398 14.5H11.414C11.824 14.5 12.164 14.84 12.164 15.25C12.164 15.66 11.824 16 11.414 16Z"
        fill="currentColor" />
    <path
        d="M12.2539 12H7.25391C6.84391 12 6.50391 11.66 6.50391 11.25C6.50391 10.84 6.84391 10.5 7.25391 10.5H12.2539C12.6639 10.5 13.0039 10.84 13.0039 11.25C13.0039 11.66 12.6639 12 12.2539 12Z"
        fill="currentColor" />
</svg>
    