<svg width="1em" height="1em" viewBox="0 0 29 29" fill="none" xmlns="http://www.w3.org/2000/svg">
    <path
        d="M10.3333 22C9.78659 22 9.33326 21.5467 9.33326 21V15.4133L8.37326 16.3733C7.98659 16.76 7.34659 16.76 6.95992 16.3733C6.57326 15.9867 6.57326 15.3467 6.95992 14.96L9.62659 12.2933C9.90659 12.0133 10.3466 11.92 10.7199 12.08C11.0933 12.2267 11.3333 12.6 11.3333 13V21C11.3333 21.5467 10.8799 22 10.3333 22Z"
        fill="currentColor" />
    <path
        d="M13.0002 16.6672C12.7469 16.6672 12.4936 16.5739 12.2936 16.3739L9.62691 13.7072C9.24025 13.3206 9.24025 12.6806 9.62691 12.2939C10.0136 11.9072 10.6536 11.9072 11.0402 12.2939L13.7069 14.9606C14.0936 15.3472 14.0936 15.9872 13.7069 16.3739C13.5069 16.5739 13.2536 16.6672 13.0002 16.6672Z"
        fill="currentColor" />
    <path
        d="M18.3333 28.6667H10.3333C3.09333 28.6667 0 25.5733 0 18.3333V10.3333C0 3.09333 3.09333 0 10.3333 0H17C17.5467 0 18 0.453333 18 1C18 1.54667 17.5467 2 17 2H10.3333C4.18667 2 2 4.18667 2 10.3333V18.3333C2 24.48 4.18667 26.6667 10.3333 26.6667H18.3333C24.48 26.6667 26.6667 24.48 26.6667 18.3333V11.6667C26.6667 11.12 27.12 10.6667 27.6667 10.6667C28.2133 10.6667 28.6667 11.12 28.6667 11.6667V18.3333C28.6667 25.5733 25.5733 28.6667 18.3333 28.6667Z"
        fill="currentColor" />
    <path
        d="M27.6667 12.6667H22.3333C17.7733 12.6667 16 10.8933 16 6.33332V0.999985C16 0.599985 16.24 0.226652 16.6133 0.0799849C16.9867 -0.0800151 17.4133 0.0133184 17.7067 0.293318L28.3733 10.96C28.6533 11.24 28.7467 11.68 28.5867 12.0533C28.4267 12.4267 28.0667 12.6667 27.6667 12.6667ZM18 3.41332V6.33332C18 9.77332 18.8933 10.6667 22.3333 10.6667H25.2533L18 3.41332Z"
        fill="currentColor" />
</svg>
    