<svg width="1em" height="1em" viewBox="0 0 19 22" fill="none" xmlns="http://www.w3.org/2000/svg">
    <path
        d="M9.33984 11.5C6.16984 11.5 3.58984 8.92 3.58984 5.75C3.58984 2.58 6.16984 0 9.33984 0C12.5098 0 15.0898 2.58 15.0898 5.75C15.0898 8.92 12.5098 11.5 9.33984 11.5ZM9.33984 1.5C6.99984 1.5 5.08984 3.41 5.08984 5.75C5.08984 8.09 6.99984 10 9.33984 10C11.6798 10 13.5898 8.09 13.5898 5.75C13.5898 3.41 11.6798 1.5 9.33984 1.5Z"
        fill="currentColor" />
    <path
        d="M17.93 21.5C17.52 21.5 17.18 21.16 17.18 20.75C17.18 17.3 13.66 14.5 9.34 14.5C5.02 14.5 1.5 17.3 1.5 20.75C1.5 21.16 1.16 21.5 0.75 21.5C0.34 21.5 0 21.16 0 20.75C0 16.48 4.19 13 9.34 13C14.49 13 18.68 16.48 18.68 20.75C18.68 21.16 18.34 21.5 17.93 21.5Z"
        fill="currentColor" />
</svg>
    