<svg width="1em" height="1em" viewBox="0 0 22 22" fill="none" xmlns="http://www.w3.org/2000/svg">
    <path
        d="M15.75 21.4976H5.75C2.31 21.4976 0 19.1876 0 15.7476V10.7476C0 7.66756 1.9 5.43757 4.85 5.06757C5.13 5.02757 5.44 4.99756 5.75 4.99756H15.75C15.99 4.99756 16.3 5.00756 16.62 5.05756C19.57 5.39756 21.5 7.63756 21.5 10.7476V15.7476C21.5 19.1876 19.19 21.4976 15.75 21.4976ZM5.75 6.49756C5.51 6.49756 5.28 6.51755 5.05 6.54755C2.85 6.82755 1.5 8.42756 1.5 10.7476V15.7476C1.5 18.3276 3.17 19.9976 5.75 19.9976H15.75C18.33 19.9976 20 18.3276 20 15.7476V10.7476C20 8.40756 18.63 6.79757 16.41 6.53757C16.17 6.49757 15.96 6.49756 15.75 6.49756H5.75Z"
        fill="currentColor" />
    <path
        d="M4.94005 6.55751C4.70005 6.55751 4.48005 6.44751 4.33005 6.24751C4.16005 6.01751 4.14005 5.71751 4.27005 5.46751C4.44005 5.12751 4.68005 4.79751 4.99005 4.49751L8.24005 1.2375C9.90005 -0.4125 12.6 -0.4125 14.26 1.2375L16.01 3.00752C16.75 3.73752 17.2 4.71752 17.25 5.75752C17.26 5.98752 17.17 6.2075 17 6.3575C16.83 6.5075 16.6 6.57752 16.38 6.53752C16.18 6.50752 15.97 6.49751 15.75 6.49751H5.75005C5.51005 6.49751 5.28005 6.5175 5.05005 6.5475C5.02005 6.5575 4.98005 6.55751 4.94005 6.55751ZM6.61005 4.99751H15.57C15.44 4.65751 15.23 4.34752 14.95 4.06752L13.19 2.28752C12.12 1.22752 10.37 1.22752 9.29005 2.28752L6.61005 4.99751Z"
        fill="currentColor" />
    <path
        d="M20.75 15.9976H17.75C16.23 15.9976 15 14.7676 15 13.2476C15 11.7276 16.23 10.4976 17.75 10.4976H20.75C21.16 10.4976 21.5 10.8376 21.5 11.2476C21.5 11.6576 21.16 11.9976 20.75 11.9976H17.75C17.06 11.9976 16.5 12.5576 16.5 13.2476C16.5 13.9376 17.06 14.4976 17.75 14.4976H20.75C21.16 14.4976 21.5 14.8376 21.5 15.2476C21.5 15.6576 21.16 15.9976 20.75 15.9976Z"
        fill="currentColor" />
</svg>
    