<svg width="1em" height="1em" viewBox="0 0 67 68" fill="none" xmlns="http://www.w3.org/2000/svg">
    <path d="M41.3506 46.9941H25.1006" stroke="currentColor" stroke-width="3" stroke-miterlimit="10"
        stroke-linecap="round" stroke-linejoin="round" />
    <path
        d="M36.1451 3.18394L36.0476 3.41144L26.6226 25.2839H17.3601C15.1501 25.2839 13.0376 25.7389 11.1201 26.5514L16.8076 12.9664L16.9376 12.6414L17.1651 12.1214C17.2301 11.9264 17.2951 11.7314 17.3926 11.5689C21.6501 1.72144 26.4601 -0.521059 36.1451 3.18394Z"
        stroke="currentColor" stroke-width="3" stroke-linecap="round" stroke-linejoin="round" />
    <path
        d="M53.6626 25.9336C52.2001 25.4786 50.6401 25.2836 49.0801 25.2836H26.6226L36.0476 3.41109L36.1451 3.18359C36.6326 3.34609 37.0876 3.57359 37.5751 3.76859L44.7576 6.79109C48.7551 8.44859 51.5501 10.1711 53.2401 12.2511C53.5651 12.6411 53.8251 12.9986 54.0526 13.4211C54.3451 13.8761 54.5726 14.3311 54.7026 14.8186C54.8326 15.1111 54.9301 15.4036 54.9951 15.6636C55.8726 18.3936 55.3526 21.7411 53.6626 25.9336Z"
        stroke="currentColor" stroke-width="3" stroke-linecap="round" stroke-linejoin="round" />
    <path
        d="M64.9456 41.1452V47.4827C64.9456 48.1327 64.9131 48.7827 64.8806 49.4327C64.2631 60.7752 57.9256 66.4952 45.9006 66.4952H20.5506C19.7706 66.4952 18.9906 66.4302 18.2431 66.3327C7.90809 65.6502 2.38309 60.1252 1.70059 49.7902C1.60309 49.0427 1.53809 48.2627 1.53809 47.4827V41.1452C1.53809 34.6127 5.50309 28.9902 11.1581 26.5527C13.1081 25.7402 15.1881 25.2852 17.3981 25.2852H49.1181C50.7106 25.2852 52.2706 25.5127 53.7006 25.9352C60.1681 27.9177 64.9456 33.9627 64.9456 41.1452Z"
        stroke="currentColor" stroke-width="3" stroke-linecap="round" stroke-linejoin="round" />
    <path
        d="M16.8075 12.9668L11.12 26.5518C5.465 28.9893 1.5 34.6118 1.5 41.1443V31.6218C1.5 22.3918 8.065 14.6893 16.8075 12.9668Z"
        stroke="currentColor" stroke-width="3" stroke-linecap="round" stroke-linejoin="round" />
    <path
        d="M64.9354 31.6199V41.1424C64.9354 33.9924 60.1904 27.9149 53.6904 25.9649C55.3804 21.7399 55.8679 18.4249 55.0554 15.6624C54.9904 15.3699 54.8929 15.0774 54.7629 14.8174C60.8079 17.9374 64.9354 24.3399 64.9354 31.6199Z"
        stroke="currentColor" stroke-width="3" stroke-linecap="round" stroke-linejoin="round" />
</svg>
    